<svg width="422" height="157" viewBox="0 0 422 157" fill="none" xmlns="http://www.w3.org/2000/svg">
<path d="M46 157V0.199992H2.38419e-07V14.2H29V157H46ZM140.016 157V0.199992H74.0156V57H123.016V143H74.0156V157H140.016ZM88.0156 14.2H123.016V43H88.0156V14.2ZM184.961 157V57H219.961V157H233.961V43H184.961V0.199992H167.961V157H184.961ZM327.906 157V0.199992H261.906V14.2H310.906V43H261.906V57H310.906V143H261.906V157H327.906ZM421.852 157V0.199992H355.852V157H421.852ZM372.852 14.2H404.852V143H372.852V14.2Z" fill="#82B1F8"/>
</svg>
