<svg width="414" height="157" viewBox="0 0 414 157" fill="none" xmlns="http://www.w3.org/2000/svg">
<path d="M66 157V143H17V57H66V0.199992H5.96046e-08V14.2H52V43H5.96046e-08V157H66ZM131.945 157V0.199992H85.9453V14.2H114.945V157H131.945ZM176.961 157V57H211.961V157H225.961V43H176.961V0.199992H159.961V157H176.961ZM319.906 157V0.199992H253.906V157H319.906ZM270.906 14.2H302.906V143H270.906V14.2ZM413.852 157V0.199992H347.852V157H413.852ZM364.852 14.2H396.852V143H364.852V14.2Z" fill="#82B1F8"/>
</svg>
