<svg width="442" height="157" viewBox="0 0 442 157" fill="none" xmlns="http://www.w3.org/2000/svg">
<path d="M66 157V143H17V57H66V0.199992H5.96046e-08V14.2H52V43H5.96046e-08V157H66ZM159.945 157V143H110.945V57H159.945V0.199992H93.9453V14.2H145.945V43H93.9453V157H159.945ZM204.891 157V57H239.891V157H253.891V43H204.891V0.199992H187.891V157H204.891ZM347.836 157V0.199992H281.836V14.2H330.836V43H281.836V57H330.836V143H281.836V157H347.836ZM441.781 157V0.199992H375.781V157H441.781ZM392.781 14.2H424.781V143H392.781V14.2Z" fill="#82B1F8"/>
</svg>
