<svg width="969" height="200" viewBox="0 0 969 200" fill="none" xmlns="http://www.w3.org/2000/svg">
<path d="M151.746 35.9346L134.818 164H84.2725L65.0508 35.9346H100.172C104.232 71.2139 107.133 101.035 108.873 125.398C110.613 100.771 112.433 78.8867 114.331 59.7441L116.625 35.9346H151.746ZM228.87 113.375H187.5V136.077C187.5 140.823 187.843 143.882 188.528 145.253C189.214 146.624 190.532 147.31 192.483 147.31C194.909 147.31 196.518 146.413 197.309 144.62C198.152 142.774 198.574 139.241 198.574 134.021V120.178H228.87V127.93C228.87 134.416 228.448 139.399 227.604 142.88C226.813 146.36 224.915 150.078 221.909 154.033C218.903 157.988 215.08 160.968 210.439 162.972C205.852 164.923 200.077 165.898 193.116 165.898C186.366 165.898 180.407 164.923 175.239 162.972C170.071 161.021 166.037 158.357 163.137 154.982C160.289 151.555 158.312 147.811 157.204 143.75C156.097 139.637 155.543 133.678 155.543 125.873V95.2607C155.543 86.085 156.782 78.8604 159.261 73.5869C161.739 68.2607 165.8 64.2002 171.442 61.4053C177.085 58.5576 183.571 57.1338 190.901 57.1338C199.866 57.1338 207.249 58.8477 213.05 62.2754C218.903 65.6504 222.99 70.1592 225.311 75.8018C227.684 81.3916 228.87 89.2754 228.87 99.4531V113.375ZM196.834 96.2891V88.6162C196.834 83.1846 196.544 79.6777 195.964 78.0957C195.384 76.5137 194.197 75.7227 192.404 75.7227C190.189 75.7227 188.818 76.4082 188.291 77.7793C187.764 79.0977 187.5 82.71 187.5 88.6162V96.2891H196.834ZM271.901 59.0322L271.348 68.6826C273.668 64.833 276.489 61.959 279.812 60.0605C283.187 58.1094 287.062 57.1338 291.439 57.1338C296.924 57.1338 301.406 58.4258 304.887 61.0098C308.367 63.5938 310.608 66.8633 311.61 70.8184C312.612 74.7207 313.113 81.2598 313.113 90.4355V164H281.156V91.3057C281.156 84.0811 280.919 79.6777 280.444 78.0957C279.97 76.5137 278.651 75.7227 276.489 75.7227C274.222 75.7227 272.798 76.6455 272.218 78.4912C271.638 80.2842 271.348 85.1357 271.348 93.0459V164H239.391V59.0322H271.901ZM396.565 113.375H355.195V136.077C355.195 140.823 355.538 143.882 356.224 145.253C356.909 146.624 358.228 147.31 360.179 147.31C362.604 147.31 364.213 146.413 365.004 144.62C365.848 142.774 366.27 139.241 366.27 134.021V120.178H396.565V127.93C396.565 134.416 396.144 139.399 395.3 142.88C394.509 146.36 392.61 150.078 389.604 154.033C386.599 157.988 382.775 160.968 378.135 162.972C373.547 164.923 367.772 165.898 360.812 165.898C354.062 165.898 348.103 164.923 342.935 162.972C337.767 161.021 333.732 158.357 330.832 154.982C327.984 151.555 326.007 147.811 324.899 143.75C323.792 139.637 323.238 133.678 323.238 125.873V95.2607C323.238 86.085 324.478 78.8604 326.956 73.5869C329.435 68.2607 333.495 64.2002 339.138 61.4053C344.78 58.5576 351.267 57.1338 358.597 57.1338C367.562 57.1338 374.944 58.8477 380.745 62.2754C386.599 65.6504 390.686 70.1592 393.006 75.8018C395.379 81.3916 396.565 89.2754 396.565 99.4531V113.375ZM364.529 96.2891V88.6162C364.529 83.1846 364.239 79.6777 363.659 78.0957C363.079 76.5137 361.893 75.7227 360.1 75.7227C357.885 75.7227 356.514 76.4082 355.986 77.7793C355.459 79.0977 355.195 82.71 355.195 88.6162V96.2891H364.529ZM456.841 59.0322V82.2881L433.269 142.959H456.841V164H402.34V142.01L426.466 80.0732H404.792V59.0322H456.841ZM558.724 59.0322L543.773 164H502.087L486.029 59.0322H514.585L523.523 135.603C524.209 130.013 525.369 116.302 527.004 94.4697C527.953 82.2881 529.008 70.4756 530.168 59.0322H558.724ZM596.455 35.9346V52.625H563.549V35.9346H596.455ZM596.455 59.0322V164H563.549V59.0322H596.455ZM674.054 59.0322L659.104 164H617.417L601.359 59.0322H629.915L638.854 135.603C639.539 130.013 640.699 116.302 642.334 94.4697C643.283 82.2881 644.338 70.4756 645.498 59.0322H674.054ZM710.836 59.0322L709.57 72.7959C714.211 62.9346 720.935 57.7139 729.741 57.1338V94.0742C723.888 94.0742 719.59 94.8652 716.848 96.4473C714.105 98.0293 712.418 100.244 711.785 103.092C711.152 105.887 710.836 112.373 710.836 122.551V164H678.879V59.0322H710.836ZM809.317 113.375H767.947V136.077C767.947 140.823 768.29 143.882 768.976 145.253C769.661 146.624 770.979 147.31 772.931 147.31C775.356 147.31 776.965 146.413 777.756 144.62C778.6 142.774 779.021 139.241 779.021 134.021V120.178H809.317V127.93C809.317 134.416 808.896 139.399 808.052 142.88C807.261 146.36 805.362 150.078 802.356 154.033C799.351 157.988 795.527 160.968 790.887 162.972C786.299 164.923 780.524 165.898 773.563 165.898C766.813 165.898 760.854 164.923 755.687 162.972C750.519 161.021 746.484 158.357 743.584 154.982C740.736 151.555 738.759 147.811 737.651 143.75C736.544 139.637 735.99 133.678 735.99 125.873V95.2607C735.99 86.085 737.229 78.8604 739.708 73.5869C742.187 68.2607 746.247 64.2002 751.89 61.4053C757.532 58.5576 764.019 57.1338 771.349 57.1338C780.313 57.1338 787.696 58.8477 793.497 62.2754C799.351 65.6504 803.438 70.1592 805.758 75.8018C808.131 81.3916 809.317 89.2754 809.317 99.4531V113.375ZM777.281 96.2891V88.6162C777.281 83.1846 776.991 79.6777 776.411 78.0957C775.831 76.5137 774.645 75.7227 772.852 75.7227C770.637 75.7227 769.266 76.4082 768.738 77.7793C768.211 79.0977 767.947 82.71 767.947 88.6162V96.2891H777.281ZM841.116 137.896V164H816.99V137.896H841.116ZM871.017 137.896V164H846.891V137.896H871.017ZM900.917 137.896V164H876.791V137.896H900.917Z" fill="#82B1F8"/>
<path d="M16 104V81.2H13.2V101.2H6.2V81.2H2.8V104H16ZM24.9891 104V84H31.9891V104H34.7891V81.2H21.5891V104H24.9891ZM53.5781 104V101.2H43.7781V94.96H53.5781V81.2H40.3781V104H53.5781ZM43.7781 84H50.7781V92.16H43.7781V84ZM74.5594 104V84H81.5594V104H84.3594V81.2H71.1594V104H74.5594ZM103.148 104V81.2H100.348V101.2H93.3484V81.2H89.9484V104H103.148ZM112.138 75.44V72.64H108.738V75.44H112.138ZM112.138 104V81.2H108.738V104H112.138ZM121.122 104V84H126.922V81.2H121.122V72.64H117.722V104H121.122ZM156.117 104V101.2H146.317V84H156.117V81.2H142.917V104H156.117ZM174.906 104V81.2H161.706V104H174.906ZM165.106 84H172.106V101.2H165.106V84ZM183.895 104V84H191.895V104H194.695V84H202.695V104H206.095V81.2H180.495V104H183.895ZM215.106 114.44V104H224.906V81.2H211.706V114.44H215.106ZM215.106 84H222.106V101.2H215.106V84ZM233.895 104V72.64H230.495V104H233.895ZM246.08 75.44V72.64H239.48V75.44H246.08ZM252.68 104V101.2H242.88V94.96H252.68V81.2H239.48V104H252.68ZM242.88 84H249.88V92.16H242.88V84ZM261.669 104V84H267.469V81.2H261.669V72.64H258.269V104H261.669ZM284.672 104V101.2H274.872V94.96H284.672V81.2H271.472V104H284.672ZM274.872 84H281.872V92.16H274.872V84ZM315.453 104V72.64H312.053V81.2H302.253V104H315.453ZM305.053 84H312.053V101.2H305.053V84ZM334.242 104V101.2H324.442V94.96H334.242V81.2H321.042V104H334.242ZM324.442 84H331.442V92.16H324.442V84ZM355.223 114.44V104H365.023V81.2H351.823V114.44H355.223ZM355.223 84H362.223V101.2H355.223V84ZM383.813 104V101.2H374.013V94.96H383.813V81.2H370.613V104H383.813ZM374.013 84H381.013V92.16H374.013V84ZM392.802 104V84H398.602V81.2H389.402V104H392.802ZM406.005 104V84H411.805V81.2H406.005V72.64H402.605V104H406.005ZM429.008 104V101.2H419.208V94.96H429.008V81.2H415.808V104H429.008ZM419.208 84H426.208V92.16H419.208V84ZM459.789 104V72.64H456.389V81.2H446.589V104H459.789ZM449.389 84H456.389V101.2H449.389V84ZM478.578 104V101.2H468.778V94.96H478.578V81.2H465.378V104H478.578ZM468.778 84H475.778V92.16H468.778V84ZM499.559 104V84H505.359V81.2H496.159V104H499.559ZM522.563 104V101.2H512.763V94.96H522.563V81.2H509.363V104H522.563ZM512.763 84H519.763V92.16H512.763V84ZM531.552 114.44V104H541.352V81.2H528.152V114.44H531.552ZM531.552 84H538.552V101.2H531.552V84ZM553.541 75.44V72.64H546.941V75.44H553.541ZM560.141 104V101.2H550.341V94.96H560.141V81.2H546.941V104H560.141ZM550.341 84H557.341V92.16H550.341V84ZM569.13 104V84H574.93V81.2H565.73V104H569.13ZM592.133 104V101.2H582.333V94.96H592.133V81.2H578.933V104H592.133ZM582.333 84H589.333V92.16H582.333V84ZM610.922 104V92.16H601.122V84H610.922V81.2H597.722V94.96H608.122V101.2H597.722V104H610.922ZM619.911 104V101.2H616.511V104H619.911ZM640.888 104V84H650.688V72.64H637.488V104H640.888ZM640.888 75.44H647.888V81.2H640.888V75.44ZM667.875 104V101.2H658.075V94.96H667.875V81.2H654.675V104H667.875ZM658.075 84H665.075V92.16H658.075V84ZM676.864 104V84H682.664V81.2H673.464V104H676.864ZM699.867 104V72.64H696.467V81.2H686.667V104H699.867ZM689.467 84H696.467V101.2H689.467V84ZM718.656 104V101.2H708.856V94.96H718.656V81.2H705.456V104H718.656ZM708.856 84H715.856V92.16H708.856V84ZM737.445 104V101.2H727.045V98.8H732.085V94.96H737.445V81.2H724.245V84H734.045V92.16H729.285V96H724.245V104H737.445ZM767.827 104V81.2H765.027V101.2H761.427V92.16H758.027V81.2H754.627V94.96H758.027V104H767.827ZM786.625 104V81.2H773.425V104H786.625ZM776.825 84H783.825V101.2H776.825V84ZM805.414 104V92.16H795.614V84H805.414V81.2H792.214V94.96H802.614V101.2H792.214V104H805.414ZM836.195 104V92.16H826.395V84H836.195V81.2H822.995V94.96H833.395V101.2H822.995V104H836.195ZM854.984 104V101.2H845.184V94.96H854.984V81.2H841.784V104H854.984ZM845.184 84H852.184V92.16H845.184V84ZM863.973 104V84H870.973V104H873.773V81.2H860.573V104H863.973ZM892.563 104V92.16H882.763V84H892.563V81.2H879.363V94.96H889.763V101.2H879.363V104H892.563ZM900.952 109.4V102H898.552V106.6H896.552V109.4H900.952ZM15.6 152V129.2H12.8V149.2H9.2V140.16H5.8V129.2H2.4V142.96H5.8V152H15.6ZM34.3984 152V129.2H21.1984V152H34.3984ZM24.5984 132H31.5984V149.2H24.5984V132ZM43.3875 152V132H49.1875V129.2H43.3875V120.64H39.9875V152H43.3875ZM56.5906 152V132H62.3906V129.2H53.1906V152H56.5906ZM79.5938 152V149.2H69.7938V142.96H79.5938V129.2H66.3938V152H79.5938ZM69.7938 132H76.7938V140.16H69.7938V132ZM110.375 152V149.2H100.575V132H110.375V129.2H97.175V152H110.375ZM129.164 152V129.2H115.964V152H129.164ZM119.364 132H126.364V149.2H119.364V132ZM138.153 152V132H143.953V129.2H134.753V152H138.153ZM151.356 162.44V152H161.156V129.2H147.956V162.44H151.356ZM151.356 132H158.356V149.2H151.356V132ZM179.945 152V140.16H170.145V132H179.945V129.2H166.745V142.96H177.145V149.2H166.745V152H179.945ZM188.334 157.4V150H185.934V154.6H183.934V157.4H188.334ZM219.125 123.44V120.64H212.525V123.44H219.125ZM219.125 152V149.2H209.325V142.96H219.125V129.2H205.925V152H219.125ZM209.325 132H216.325V140.16H209.325V132ZM237.914 162.44V129.2H224.794V152H234.514V159.64H224.714V162.44H237.914ZM227.594 132H234.514V149.2H227.594V132ZM256.703 152V129.2H243.503V132H253.303V140.16H243.503V152H256.703ZM246.303 142.96H253.303V149.2H246.303V142.96ZM265.692 152V132H271.492V129.2H262.292V152H265.692ZM288.695 152V149.2H278.895V142.96H288.695V129.2H275.495V152H288.695ZM278.895 132H285.895V140.16H278.895V132ZM307.484 152V149.2H297.084V146.8H302.124V142.96H307.484V129.2H294.284V132H304.084V140.16H299.324V144H294.284V152H307.484ZM337.866 152V129.2H335.066V149.2H331.466V140.16H328.066V129.2H324.666V142.96H328.066V152H337.866ZM356.664 152V129.2H343.464V152H356.664ZM346.864 132H353.864V149.2H346.864V132ZM375.453 152V129.2H372.653V149.2H365.653V129.2H362.253V152H375.453ZM394.242 152V140.16H384.442V132H394.242V129.2H381.042V142.96H391.442V149.2H381.042V152H394.242ZM425.023 152V120.64H421.623V129.2H411.823V152H425.023ZM414.623 132H421.623V149.2H414.623V132ZM443.813 152V129.2H430.613V132H440.413V140.16H430.613V152H443.813ZM433.413 142.96H440.413V149.2H433.413V142.96ZM452.802 152V132H459.802V152H462.602V129.2H449.402V152H452.802ZM481.391 152V140.16H471.591V132H481.391V129.2H468.191V142.96H478.591V149.2H468.191V152H481.391ZM512.172 152V129.2H509.372V149.2H502.372V129.2H498.972V152H512.172ZM521.161 152V132H528.161V152H530.961V129.2H517.761V152H521.161ZM549.75 152V149.2H539.95V142.96H549.75V129.2H536.55V152H549.75ZM539.95 132H546.95V140.16H539.95V132ZM580.131 152V129.2H577.331V149.2H573.731V140.16H570.331V129.2H566.931V142.96H570.331V152H580.131ZM589.13 123.44V120.64H585.73V123.44H589.13ZM589.13 152V129.2H585.73V152H589.13ZM598.114 152V120.64H594.714V152H598.114ZM607.098 152V120.64H603.698V152H607.098ZM625.883 152V149.2H616.083V142.96H625.883V129.2H612.683V152H625.883ZM616.083 132H623.083V140.16H616.083V132ZM634.272 157.4V150H631.872V154.6H629.872V157.4H634.272ZM665.063 152V120.64H661.663V129.2H651.863V152H665.063ZM654.663 132H661.663V149.2H654.663V132ZM683.852 152V129.2H670.652V132H680.452V140.16H670.652V152H683.852ZM673.452 142.96H680.452V149.2H673.452V142.96ZM692.841 152V132H699.841V152H702.641V129.2H689.441V152H692.841ZM721.43 152V140.16H711.63V132H721.43V129.2H708.23V142.96H718.63V149.2H708.23V152H721.43ZM752.211 152V129.2H749.411V149.2H742.411V129.2H739.011V152H752.211ZM761.2 152V132H768.2V152H771V129.2H757.8V152H761.2ZM791.981 152V132H798.981V152H801.781V129.2H791.981V120.64H788.581V152H791.981ZM820.57 152V129.2H807.37V152H820.57ZM810.77 132H817.77V149.2H810.77V132ZM829.559 152V132H835.359V129.2H829.559V120.64H826.159V152H829.559ZM852.563 152V149.2H842.763V142.96H852.563V129.2H839.363V152H852.563ZM842.763 132H849.763V140.16H842.763V132ZM861.552 152V120.64H858.152V152H861.552ZM892.328 152V129.2H879.128V152H892.328ZM882.528 132H889.528V149.2H882.528V132ZM911.117 152V129.2H908.317V149.2H901.317V129.2H897.917V152H911.117ZM6.2 200V180H14.2V200H17V180H25V200H28.4V177.2H2.8V200H6.2ZM47.2109 171.44V168.64H34.0109V171.44H47.2109ZM47.2109 200V197.2H37.4109V190.96H47.2109V177.2H34.0109V200H47.2109ZM37.4109 180H44.4109V188.16H37.4109V180ZM56.2 200V180H64.2V200H67V180H75V200H78.4V177.2H52.8V200H56.2ZM97.2109 200V197.2H87.4109V190.96H97.2109V177.2H84.0109V200H97.2109ZM87.4109 180H94.4109V188.16H87.4109V180ZM127.992 200V168.64H124.592V177.2H114.792V200H127.992ZM117.592 180H124.592V197.2H117.592V180ZM146.781 200V177.2H133.581V180H143.381V188.16H133.581V200H146.781ZM136.381 190.96H143.381V197.2H136.381V190.96ZM155.77 200V180H162.77V200H165.57V177.2H152.37V200H155.77ZM184.359 200V188.16H174.559V180H184.359V177.2H171.159V190.96H181.559V197.2H171.159V200H184.359ZM214.741 200V177.2H211.941V197.2H208.341V188.16H204.941V177.2H201.541V190.96H204.941V200H214.741ZM233.539 200V177.2H220.339V200H233.539ZM223.739 180H230.739V197.2H223.739V180ZM252.328 200V188.16H242.528V180H252.328V177.2H239.128V190.96H249.528V197.2H239.128V200H252.328ZM273.309 200V180H279.109V177.2H269.909V200H273.309ZM296.313 171.44V168.64H283.113V171.44H296.313ZM296.313 200V197.2H286.513V190.96H296.313V177.2H283.113V200H296.313ZM286.513 180H293.513V188.16H286.513V180ZM314.702 200V177.2H311.902V197.2H308.302V188.16H304.902V177.2H301.502V190.96H304.902V200H314.702ZM333.5 200V197.2H323.7V190.96H333.5V177.2H320.3V200H333.5ZM323.7 180H330.7V188.16H323.7V180ZM352.289 200V188.16H342.489V180H352.289V177.2H339.089V190.96H349.489V197.2H339.089V200H352.289ZM361.278 200V197.2H357.878V200H361.278ZM370.263 200V197.2H366.863V200H370.263ZM379.247 200V197.2H375.847V200H379.247Z" fill="white"/>
</svg>
