<svg width="746" height="425" viewBox="0 0 746 425" fill="none" xmlns="http://www.w3.org/2000/svg">
<path d="M70.3213 243.944V265.776H0V247.503C20.8301 213.437 33.1963 192.37 37.0986 184.301C41.0537 176.18 43.0312 169.852 43.0312 165.317C43.0312 161.836 42.4248 159.252 41.2119 157.565C40.0518 155.825 38.2588 154.955 35.833 154.955C33.4072 154.955 31.5879 155.904 30.375 157.802C29.2148 159.701 28.6348 163.471 28.6348 169.114V181.295H0V176.628C0 169.457 0.369141 163.814 1.10742 159.701C1.8457 155.535 3.66504 151.448 6.56543 147.44C9.46582 143.432 13.2363 140.4 17.877 138.343C22.5176 136.287 28.0811 135.258 34.5674 135.258C47.2764 135.258 56.874 138.422 63.3604 144.75C69.8994 151.026 73.1689 158.989 73.1689 168.639C73.1689 175.969 71.3232 183.721 67.6318 191.895C63.9932 200.069 53.209 217.418 35.2793 243.944H70.3213Z" fill="#82B1F8"/>
<path d="M132.021 137.71V265.776H100.063V197.116C100.063 187.202 99.8262 181.243 99.3516 179.239C98.877 177.235 97.5586 175.732 95.3965 174.73C93.2871 173.675 88.541 173.148 81.1582 173.148H77.9941V158.198C93.4453 154.875 105.179 148.046 113.194 137.71H132.021Z" fill="#82B1F8"/>
<path d="M201.867 135.258L163.898 268.228H139.693L177.899 135.258H201.867Z" fill="#82B1F8"/>
<path d="M257.792 137.71V265.776H225.835V197.116C225.835 187.202 225.598 181.243 225.123 179.239C224.648 177.235 223.33 175.732 221.168 174.73C219.059 173.675 214.312 173.148 206.93 173.148H203.766V158.198C219.217 154.875 230.95 148.046 238.966 137.71H257.792Z" fill="#82B1F8"/>
<path d="M345.595 181.058V223.773C345.595 233.476 345.067 240.542 344.013 244.972C342.958 249.402 340.77 253.542 337.447 257.391C334.125 261.241 330.117 264.009 325.424 265.697C320.73 267.384 315.483 268.228 309.683 268.228C302.036 268.228 295.682 267.358 290.619 265.618C285.557 263.825 281.522 261.056 278.517 257.312C275.511 253.568 273.375 249.639 272.109 245.526C270.844 241.36 270.211 234.768 270.211 225.75V181.058C270.211 169.298 271.213 160.492 273.217 154.638C275.273 148.785 279.308 144.091 285.319 140.558C291.384 137.025 298.714 135.258 307.31 135.258C314.323 135.258 320.599 136.498 326.136 138.976C331.673 141.402 335.812 144.381 338.555 147.915C341.297 151.448 343.143 155.429 344.092 159.859C345.094 164.289 345.595 171.355 345.595 181.058ZM313.638 170.3C313.638 163.498 313.295 159.252 312.609 157.565C311.977 155.825 310.447 154.955 308.021 154.955C305.648 154.955 304.066 155.877 303.275 157.723C302.537 159.516 302.168 163.708 302.168 170.3V232.791C302.168 240.226 302.511 244.708 303.196 246.238C303.935 247.767 305.49 248.532 307.863 248.532C310.236 248.532 311.792 247.635 312.53 245.842C313.269 244.049 313.638 240.015 313.638 233.74V170.3Z" fill="#82B1F8"/>
<path d="M414.492 135.258L376.523 268.228H352.318L390.524 135.258H414.492Z" fill="#82B1F8"/>
<path d="M490.034 243.944V265.776H419.713V247.503C440.543 213.437 452.909 192.37 456.812 184.301C460.767 176.18 462.744 169.852 462.744 165.317C462.744 161.836 462.138 159.252 460.925 157.565C459.765 155.825 457.972 154.955 455.546 154.955C453.12 154.955 451.301 155.904 450.088 157.802C448.928 159.701 448.348 163.471 448.348 169.114V181.295H419.713V176.628C419.713 169.457 420.082 163.814 420.82 159.701C421.559 155.535 423.378 151.448 426.278 147.44C429.179 143.432 432.949 140.4 437.59 138.343C442.23 136.287 447.794 135.258 454.28 135.258C466.989 135.258 476.587 138.422 483.073 144.75C489.612 151.026 492.882 158.989 492.882 168.639C492.882 175.969 491.036 183.721 487.345 191.895C483.706 200.069 472.922 217.418 454.992 243.944H490.034Z" fill="#82B1F8"/>
<path d="M577.837 181.058V223.773C577.837 233.476 577.31 240.542 576.255 244.972C575.2 249.402 573.012 253.542 569.689 257.391C566.367 261.241 562.359 264.009 557.666 265.697C552.973 267.384 547.726 268.228 541.925 268.228C534.278 268.228 527.924 267.358 522.861 265.618C517.799 263.825 513.765 261.056 510.759 257.312C507.753 253.568 505.617 249.639 504.352 245.526C503.086 241.36 502.453 234.768 502.453 225.75V181.058C502.453 169.298 503.455 160.492 505.459 154.638C507.516 148.785 511.55 144.091 517.562 140.558C523.626 137.025 530.956 135.258 539.552 135.258C546.565 135.258 552.841 136.498 558.378 138.976C563.915 141.402 568.055 144.381 570.797 147.915C573.539 151.448 575.385 155.429 576.334 159.859C577.336 164.289 577.837 171.355 577.837 181.058ZM545.88 170.3C545.88 163.498 545.537 159.252 544.852 157.565C544.219 155.825 542.689 154.955 540.264 154.955C537.891 154.955 536.309 155.877 535.518 157.723C534.779 159.516 534.41 163.708 534.41 170.3V232.791C534.41 240.226 534.753 244.708 535.438 246.238C536.177 247.767 537.732 248.532 540.105 248.532C542.479 248.532 544.034 247.635 544.772 245.842C545.511 244.049 545.88 240.015 545.88 233.74V170.3Z" fill="#82B1F8"/>
<path d="M658.204 243.944V265.776H587.883V247.503C608.713 213.437 621.079 192.37 624.981 184.301C628.937 176.18 630.914 169.852 630.914 165.317C630.914 161.836 630.308 159.252 629.095 157.565C627.935 155.825 626.142 154.955 623.716 154.955C621.29 154.955 619.471 155.904 618.258 157.802C617.098 159.701 616.518 163.471 616.518 169.114V181.295H587.883V176.628C587.883 169.457 588.252 163.814 588.99 159.701C589.729 155.535 591.548 151.448 594.448 147.44C597.349 143.432 601.119 140.4 605.76 138.343C610.4 136.287 615.964 135.258 622.45 135.258C635.159 135.258 644.757 138.422 651.243 144.75C657.782 151.026 661.052 158.989 661.052 168.639C661.052 175.969 659.206 183.721 655.515 191.895C651.876 200.069 641.092 217.418 623.162 243.944H658.204Z" fill="#82B1F8"/>
<path d="M730.661 193.24C735.513 194.875 739.125 197.564 741.498 201.308C743.871 205 745.058 213.701 745.058 227.412C745.058 237.589 743.897 245.5 741.577 251.142C739.257 256.732 735.249 261.003 729.554 263.957C723.858 266.857 716.555 268.307 707.643 268.307C697.518 268.307 689.555 266.62 683.754 263.245C678.006 259.817 674.209 255.651 672.363 250.747C670.57 245.79 669.674 237.22 669.674 225.039V214.914H701.631V235.717C701.631 241.254 701.947 244.788 702.58 246.317C703.266 247.793 704.742 248.532 707.01 248.532C709.488 248.532 711.123 247.583 711.914 245.684C712.705 243.786 713.101 238.829 713.101 230.813V221.954C713.101 217.049 712.547 213.463 711.439 211.196C710.332 208.928 708.697 207.452 706.535 206.766C704.373 206.028 700.181 205.606 693.958 205.5V186.912C701.552 186.912 706.245 186.622 708.038 186.042C709.831 185.461 711.123 184.196 711.914 182.245C712.705 180.293 713.101 177.235 713.101 173.069V165.95C713.101 161.467 712.626 158.514 711.677 157.09C710.78 155.667 709.356 154.955 707.405 154.955C705.19 154.955 703.661 155.719 702.817 157.249C702.026 158.725 701.631 161.916 701.631 166.82V177.34H669.674V166.424C669.674 154.19 672.469 145.937 678.059 141.666C683.648 137.341 692.534 135.179 704.716 135.179C719.956 135.179 730.292 138.159 735.724 144.118C741.155 150.077 743.871 158.356 743.871 168.956C743.871 176.127 742.896 181.322 740.944 184.539C738.993 187.703 735.565 190.603 730.661 193.24Z" fill="#82B1F8"/>
<path d="M141.328 167.776V152.796H88.8985V0H70.7085V167.776H141.328Z" fill="white"/>
<path d="M233.282 167.776V45.796H162.662V167.776H233.282ZM180.852 60.776H218.302V152.796H180.852V60.776Z" fill="white"/>
<path d="M333.803 167.776V45.796H281.373V14.98H333.803V0H263.183V60.776H318.823V152.796H263.183V167.776H333.803Z" fill="white"/>
<path d="M399.657 167.776V14.98H425.979V0H355.145V14.98H381.467V167.776H399.657Z" fill="white"/>
<path d="M529.647 167.776V0H511.457V167.776H529.647Z" fill="white"/>
<path d="M577.713 167.776V14.98H595.903V60.776H614.093V167.776H660.103V0H645.123V152.796H632.283V45.796H614.093V0H559.523V167.776H577.713Z" fill="white"/>
<path d="M88.8985 424.776V271.98H131.698V424.776H146.678V271.98H189.478V424.776H207.669V257H70.7085V424.776H88.8985Z" fill="white"/>
<path d="M308.307 424.776V302.796H237.687V424.776H308.307ZM255.877 317.776H293.327V409.796H255.877V317.776Z" fill="white"/>
<path d="M415.248 424.776V257H400.268V409.796H370.309V302.796H352.118V257H333.928V313.496H352.118V424.776H415.248Z" fill="white"/>
<path d="M463.398 424.776V257H445.208V424.776H463.398Z" fill="white"/>
<path d="M563.895 424.776V409.796H511.465V317.776H563.895V302.796H511.465V271.98H563.895V257H493.275V424.776H563.895Z" fill="white"/>
<path d="M664.416 424.776V302.796H611.986V271.98H664.416V257H593.796V317.776H649.436V409.796H593.796V424.776H664.416Z" fill="white"/>
</svg>
